%TF.GenerationSoftware,KiCad,Pcbnew,(5.1.9)-1*%
%TF.CreationDate,2021-02-16T12:42:14-08:00*%
%TF.ProjectId,Bipolar_PS,4269706f-6c61-4725-9f50-532e6b696361,rev?*%
%TF.SameCoordinates,Original*%
%TF.FileFunction,Legend,Bot*%
%TF.FilePolarity,Positive*%
%FSLAX46Y46*%
G04 Gerber Fmt 4.6, Leading zero omitted, Abs format (unit mm)*
G04 Created by KiCad (PCBNEW (5.1.9)-1) date 2021-02-16 12:42:14*
%MOMM*%
%LPD*%
G01*
G04 APERTURE LIST*
%ADD10C,0.150000*%
G04 APERTURE END LIST*
D10*
X119142857Y-135904761D02*
X120285714Y-135904761D01*
X119714285Y-135904761D02*
X119714285Y-133904761D01*
X119904761Y-134190476D01*
X120095238Y-134380952D01*
X120285714Y-134476190D01*
X118380952Y-134095238D02*
X118285714Y-134000000D01*
X118095238Y-133904761D01*
X117619047Y-133904761D01*
X117428571Y-134000000D01*
X117333333Y-134095238D01*
X117238095Y-134285714D01*
X117238095Y-134476190D01*
X117333333Y-134761904D01*
X118476190Y-135904761D01*
X117238095Y-135904761D01*
X116571428Y-134571428D02*
X116095238Y-135904761D01*
X115619047Y-134571428D01*
X113428571Y-135333333D02*
X112476190Y-135333333D01*
X113619047Y-135904761D02*
X112952380Y-133904761D01*
X112285714Y-135904761D01*
X110476190Y-135714285D02*
X110571428Y-135809523D01*
X110857142Y-135904761D01*
X111047619Y-135904761D01*
X111333333Y-135809523D01*
X111523809Y-135619047D01*
X111619047Y-135428571D01*
X111714285Y-135047619D01*
X111714285Y-134761904D01*
X111619047Y-134380952D01*
X111523809Y-134190476D01*
X111333333Y-134000000D01*
X111047619Y-133904761D01*
X110857142Y-133904761D01*
X110571428Y-134000000D01*
X110476190Y-134095238D01*
X108095238Y-135904761D02*
X108095238Y-134571428D01*
X108095238Y-133904761D02*
X108190476Y-134000000D01*
X108095238Y-134095238D01*
X108000000Y-134000000D01*
X108095238Y-133904761D01*
X108095238Y-134095238D01*
X107142857Y-134571428D02*
X107142857Y-135904761D01*
X107142857Y-134761904D02*
X107047619Y-134666666D01*
X106857142Y-134571428D01*
X106571428Y-134571428D01*
X106380952Y-134666666D01*
X106285714Y-134857142D01*
X106285714Y-135904761D01*
X105333333Y-134571428D02*
X105333333Y-136571428D01*
X105333333Y-134666666D02*
X105142857Y-134571428D01*
X104761904Y-134571428D01*
X104571428Y-134666666D01*
X104476190Y-134761904D01*
X104380952Y-134952380D01*
X104380952Y-135523809D01*
X104476190Y-135714285D01*
X104571428Y-135809523D01*
X104761904Y-135904761D01*
X105142857Y-135904761D01*
X105333333Y-135809523D01*
X102666666Y-134571428D02*
X102666666Y-135904761D01*
X103523809Y-134571428D02*
X103523809Y-135619047D01*
X103428571Y-135809523D01*
X103238095Y-135904761D01*
X102952380Y-135904761D01*
X102761904Y-135809523D01*
X102666666Y-135714285D01*
X102000000Y-134571428D02*
X101238095Y-134571428D01*
X101714285Y-133904761D02*
X101714285Y-135619047D01*
X101619047Y-135809523D01*
X101428571Y-135904761D01*
X101238095Y-135904761D01*
X98761904Y-135904761D02*
X98952380Y-135809523D01*
X99047619Y-135714285D01*
X99142857Y-135523809D01*
X99142857Y-134952380D01*
X99047619Y-134761904D01*
X98952380Y-134666666D01*
X98761904Y-134571428D01*
X98476190Y-134571428D01*
X98285714Y-134666666D01*
X98190476Y-134761904D01*
X98095238Y-134952380D01*
X98095238Y-135523809D01*
X98190476Y-135714285D01*
X98285714Y-135809523D01*
X98476190Y-135904761D01*
X98761904Y-135904761D01*
X97238095Y-134571428D02*
X97238095Y-135904761D01*
X97238095Y-134761904D02*
X97142857Y-134666666D01*
X96952380Y-134571428D01*
X96666666Y-134571428D01*
X96476190Y-134666666D01*
X96380952Y-134857142D01*
X96380952Y-135904761D01*
X95142857Y-135904761D02*
X95333333Y-135809523D01*
X95428571Y-135619047D01*
X95428571Y-133904761D01*
X94571428Y-134571428D02*
X94095238Y-135904761D01*
X93619047Y-134571428D02*
X94095238Y-135904761D01*
X94285714Y-136380952D01*
X94380952Y-136476190D01*
X94571428Y-136571428D01*
X147928571Y-92357142D02*
X147928571Y-94500000D01*
X148071428Y-94928571D01*
X148357142Y-95214285D01*
X148785714Y-95357142D01*
X149071428Y-95357142D01*
X145214285Y-95357142D02*
X145214285Y-93785714D01*
X145357142Y-93500000D01*
X145642857Y-93357142D01*
X146214285Y-93357142D01*
X146500000Y-93500000D01*
X145214285Y-95214285D02*
X145500000Y-95357142D01*
X146214285Y-95357142D01*
X146500000Y-95214285D01*
X146642857Y-94928571D01*
X146642857Y-94642857D01*
X146500000Y-94357142D01*
X146214285Y-94214285D01*
X145500000Y-94214285D01*
X145214285Y-94071428D01*
X143785714Y-93357142D02*
X143785714Y-95357142D01*
X143785714Y-93642857D02*
X143642857Y-93500000D01*
X143357142Y-93357142D01*
X142928571Y-93357142D01*
X142642857Y-93500000D01*
X142500000Y-93785714D01*
X142500000Y-95357142D01*
X141071428Y-95357142D02*
X141071428Y-92357142D01*
X140785714Y-94214285D02*
X139928571Y-95357142D01*
X139928571Y-93357142D02*
X141071428Y-94500000D01*
X139071428Y-93357142D02*
X137928571Y-93357142D01*
X138642857Y-92357142D02*
X138642857Y-94928571D01*
X138500000Y-95214285D01*
X138214285Y-95357142D01*
X137928571Y-95357142D01*
X136928571Y-95357142D02*
X136928571Y-93357142D01*
X136928571Y-93928571D02*
X136785714Y-93642857D01*
X136642857Y-93500000D01*
X136357142Y-93357142D01*
X136071428Y-93357142D01*
X134642857Y-95357142D02*
X134928571Y-95214285D01*
X135071428Y-95071428D01*
X135214285Y-94785714D01*
X135214285Y-93928571D01*
X135071428Y-93642857D01*
X134928571Y-93500000D01*
X134642857Y-93357142D01*
X134214285Y-93357142D01*
X133928571Y-93500000D01*
X133785714Y-93642857D01*
X133642857Y-93928571D01*
X133642857Y-94785714D01*
X133785714Y-95071428D01*
X133928571Y-95214285D01*
X134214285Y-95357142D01*
X134642857Y-95357142D01*
X132357142Y-93357142D02*
X132357142Y-95357142D01*
X132357142Y-93642857D02*
X132214285Y-93500000D01*
X131928571Y-93357142D01*
X131500000Y-93357142D01*
X131214285Y-93500000D01*
X131071428Y-93785714D01*
X131071428Y-95357142D01*
X126357142Y-93785714D02*
X125928571Y-93928571D01*
X125785714Y-94071428D01*
X125642857Y-94357142D01*
X125642857Y-94785714D01*
X125785714Y-95071428D01*
X125928571Y-95214285D01*
X126214285Y-95357142D01*
X127357142Y-95357142D01*
X127357142Y-92357142D01*
X126357142Y-92357142D01*
X126071428Y-92500000D01*
X125928571Y-92642857D01*
X125785714Y-92928571D01*
X125785714Y-93214285D01*
X125928571Y-93500000D01*
X126071428Y-93642857D01*
X126357142Y-93785714D01*
X127357142Y-93785714D01*
X124357142Y-95357142D02*
X124357142Y-93357142D01*
X124357142Y-92357142D02*
X124500000Y-92500000D01*
X124357142Y-92642857D01*
X124214285Y-92500000D01*
X124357142Y-92357142D01*
X124357142Y-92642857D01*
X122928571Y-94214285D02*
X120642857Y-94214285D01*
X119214285Y-95357142D02*
X119214285Y-92357142D01*
X118071428Y-92357142D01*
X117785714Y-92500000D01*
X117642857Y-92642857D01*
X117500000Y-92928571D01*
X117500000Y-93357142D01*
X117642857Y-93642857D01*
X117785714Y-93785714D01*
X118071428Y-93928571D01*
X119214285Y-93928571D01*
X115785714Y-95357142D02*
X116071428Y-95214285D01*
X116214285Y-95071428D01*
X116357142Y-94785714D01*
X116357142Y-93928571D01*
X116214285Y-93642857D01*
X116071428Y-93500000D01*
X115785714Y-93357142D01*
X115357142Y-93357142D01*
X115071428Y-93500000D01*
X114928571Y-93642857D01*
X114785714Y-93928571D01*
X114785714Y-94785714D01*
X114928571Y-95071428D01*
X115071428Y-95214285D01*
X115357142Y-95357142D01*
X115785714Y-95357142D01*
X113071428Y-95357142D02*
X113357142Y-95214285D01*
X113500000Y-94928571D01*
X113500000Y-92357142D01*
X110642857Y-95357142D02*
X110642857Y-93785714D01*
X110785714Y-93500000D01*
X111071428Y-93357142D01*
X111642857Y-93357142D01*
X111928571Y-93500000D01*
X110642857Y-95214285D02*
X110928571Y-95357142D01*
X111642857Y-95357142D01*
X111928571Y-95214285D01*
X112071428Y-94928571D01*
X112071428Y-94642857D01*
X111928571Y-94357142D01*
X111642857Y-94214285D01*
X110928571Y-94214285D01*
X110642857Y-94071428D01*
X109214285Y-95357142D02*
X109214285Y-93357142D01*
X109214285Y-93928571D02*
X109071428Y-93642857D01*
X108928571Y-93500000D01*
X108642857Y-93357142D01*
X108357142Y-93357142D01*
X105071428Y-95357142D02*
X105071428Y-92357142D01*
X103928571Y-92357142D01*
X103642857Y-92500000D01*
X103500000Y-92642857D01*
X103357142Y-92928571D01*
X103357142Y-93357142D01*
X103500000Y-93642857D01*
X103642857Y-93785714D01*
X103928571Y-93928571D01*
X105071428Y-93928571D01*
X101642857Y-95357142D02*
X101928571Y-95214285D01*
X102071428Y-95071428D01*
X102214285Y-94785714D01*
X102214285Y-93928571D01*
X102071428Y-93642857D01*
X101928571Y-93500000D01*
X101642857Y-93357142D01*
X101214285Y-93357142D01*
X100928571Y-93500000D01*
X100785714Y-93642857D01*
X100642857Y-93928571D01*
X100642857Y-94785714D01*
X100785714Y-95071428D01*
X100928571Y-95214285D01*
X101214285Y-95357142D01*
X101642857Y-95357142D01*
X99642857Y-93357142D02*
X99071428Y-95357142D01*
X98500000Y-93928571D01*
X97928571Y-95357142D01*
X97357142Y-93357142D01*
X95071428Y-95214285D02*
X95357142Y-95357142D01*
X95928571Y-95357142D01*
X96214285Y-95214285D01*
X96357142Y-94928571D01*
X96357142Y-93785714D01*
X96214285Y-93500000D01*
X95928571Y-93357142D01*
X95357142Y-93357142D01*
X95071428Y-93500000D01*
X94928571Y-93785714D01*
X94928571Y-94071428D01*
X96357142Y-94357142D01*
X93642857Y-95357142D02*
X93642857Y-93357142D01*
X93642857Y-93928571D02*
X93500000Y-93642857D01*
X93357142Y-93500000D01*
X93071428Y-93357142D01*
X92785714Y-93357142D01*
M02*
