%TF.GenerationSoftware,KiCad,Pcbnew,(5.1.9)-1*%
%TF.CreationDate,2021-02-16T12:42:14-08:00*%
%TF.ProjectId,Bipolar_PS,4269706f-6c61-4725-9f50-532e6b696361,rev?*%
%TF.SameCoordinates,Original*%
%TF.FileFunction,Copper,L1,Top*%
%TF.FilePolarity,Positive*%
%FSLAX46Y46*%
G04 Gerber Fmt 4.6, Leading zero omitted, Abs format (unit mm)*
G04 Created by KiCad (PCBNEW (5.1.9)-1) date 2021-02-16 12:42:14*
%MOMM*%
%LPD*%
G01*
G04 APERTURE LIST*
%TA.AperFunction,ComponentPad*%
%ADD10C,2.400000*%
%TD*%
%TA.AperFunction,ComponentPad*%
%ADD11R,2.400000X2.400000*%
%TD*%
%TA.AperFunction,ComponentPad*%
%ADD12C,1.600000*%
%TD*%
%TA.AperFunction,ComponentPad*%
%ADD13R,2.200000X2.200000*%
%TD*%
%TA.AperFunction,ComponentPad*%
%ADD14O,2.200000X2.200000*%
%TD*%
%TA.AperFunction,ComponentPad*%
%ADD15R,4.000000X4.000000*%
%TD*%
%TA.AperFunction,ComponentPad*%
%ADD16C,3.300000*%
%TD*%
%TA.AperFunction,ComponentPad*%
%ADD17C,3.500000*%
%TD*%
%TA.AperFunction,ComponentPad*%
%ADD18C,1.700000*%
%TD*%
%TA.AperFunction,ComponentPad*%
%ADD19O,1.905000X2.000000*%
%TD*%
%TA.AperFunction,ComponentPad*%
%ADD20R,1.905000X2.000000*%
%TD*%
%TA.AperFunction,Conductor*%
%ADD21C,1.000000*%
%TD*%
G04 APERTURE END LIST*
D10*
%TO.P,C1,2*%
%TO.N,GND*%
X150000000Y-109000000D03*
D11*
%TO.P,C1,1*%
%TO.N,Net-(C1-Pad1)*%
X150000000Y-101500000D03*
%TD*%
D10*
%TO.P,C2,2*%
%TO.N,Net-(C2-Pad2)*%
X114000000Y-128500000D03*
D11*
%TO.P,C2,1*%
%TO.N,GND*%
X114000000Y-121000000D03*
%TD*%
%TO.P,C3,1*%
%TO.N,Net-(C1-Pad1)*%
X114000000Y-101500000D03*
D10*
%TO.P,C3,2*%
%TO.N,GND*%
X114000000Y-109000000D03*
%TD*%
D11*
%TO.P,C4,1*%
%TO.N,GND*%
X132000000Y-121000000D03*
D10*
%TO.P,C4,2*%
%TO.N,Net-(C2-Pad2)*%
X132000000Y-128500000D03*
%TD*%
D11*
%TO.P,C5,1*%
%TO.N,Net-(C1-Pad1)*%
X132000000Y-101500000D03*
D10*
%TO.P,C5,2*%
%TO.N,GND*%
X132000000Y-109000000D03*
%TD*%
%TO.P,C6,2*%
%TO.N,Net-(C2-Pad2)*%
X150000000Y-128500000D03*
D11*
%TO.P,C6,1*%
%TO.N,GND*%
X150000000Y-121000000D03*
%TD*%
D12*
%TO.P,C7,1*%
%TO.N,Net-(C1-Pad1)*%
X161000000Y-108000000D03*
%TO.P,C7,2*%
%TO.N,GND*%
X161000000Y-113000000D03*
%TD*%
%TO.P,C8,1*%
%TO.N,GND*%
X161000000Y-117000000D03*
%TO.P,C8,2*%
%TO.N,Net-(C2-Pad2)*%
X161000000Y-122000000D03*
%TD*%
%TO.P,C9,2*%
%TO.N,GND*%
X177000000Y-109000000D03*
%TO.P,C9,1*%
%TO.N,Net-(C9-Pad1)*%
X177000000Y-104000000D03*
%TD*%
%TO.P,C10,2*%
%TO.N,Net-(C10-Pad2)*%
X177000000Y-131000000D03*
%TO.P,C10,1*%
%TO.N,GND*%
X177000000Y-126000000D03*
%TD*%
D13*
%TO.P,D1,1*%
%TO.N,Net-(C1-Pad1)*%
X94380000Y-106000000D03*
D14*
%TO.P,D1,2*%
%TO.N,Net-(D1-Pad2)*%
X102000000Y-106000000D03*
%TD*%
%TO.P,D2,2*%
%TO.N,Net-(C2-Pad2)*%
X94380000Y-124000000D03*
D13*
%TO.P,D2,1*%
%TO.N,Net-(D1-Pad2)*%
X102000000Y-124000000D03*
%TD*%
%TO.P,D3,1*%
%TO.N,Net-(C1-Pad1)*%
X166000000Y-97000000D03*
D14*
%TO.P,D3,2*%
%TO.N,Net-(C9-Pad1)*%
X173620000Y-97000000D03*
%TD*%
D15*
%TO.P,J1,1*%
%TO.N,Net-(D1-Pad2)*%
X102000000Y-115000000D03*
D16*
%TO.P,J1,2*%
%TO.N,GND*%
X96000000Y-115000000D03*
D17*
%TO.P,J1,MP*%
%TO.N,N/C*%
X95000000Y-110500000D03*
X95000000Y-119500000D03*
%TD*%
%TO.P,J2,1*%
%TO.N,Net-(C9-Pad1)*%
%TA.AperFunction,ComponentPad*%
G36*
G01*
X182150000Y-110520000D02*
X182150000Y-109320000D01*
G75*
G02*
X182400000Y-109070000I250000J0D01*
G01*
X183600000Y-109070000D01*
G75*
G02*
X183850000Y-109320000I0J-250000D01*
G01*
X183850000Y-110520000D01*
G75*
G02*
X183600000Y-110770000I-250000J0D01*
G01*
X182400000Y-110770000D01*
G75*
G02*
X182150000Y-110520000I0J250000D01*
G01*
G37*
%TD.AperFunction*%
D18*
%TO.P,J2,3*%
%TO.N,GND*%
X183000000Y-112460000D03*
%TO.P,J2,5*%
X183000000Y-115000000D03*
%TO.P,J2,7*%
X183000000Y-117540000D03*
%TO.P,J2,9*%
%TO.N,Net-(C10-Pad2)*%
X183000000Y-120080000D03*
%TO.P,J2,2*%
%TO.N,Net-(C9-Pad1)*%
X185540000Y-109920000D03*
%TO.P,J2,4*%
%TO.N,GND*%
X185540000Y-112460000D03*
%TO.P,J2,6*%
X185540000Y-115000000D03*
%TO.P,J2,8*%
X185540000Y-117540000D03*
%TO.P,J2,10*%
%TO.N,Net-(C10-Pad2)*%
X185540000Y-120080000D03*
%TD*%
D19*
%TO.P,U1,3*%
%TO.N,Net-(C9-Pad1)*%
X172080000Y-104000000D03*
%TO.P,U1,2*%
%TO.N,GND*%
X169540000Y-104000000D03*
D20*
%TO.P,U1,1*%
%TO.N,Net-(C1-Pad1)*%
X167000000Y-104000000D03*
%TD*%
%TO.P,U2,1*%
%TO.N,GND*%
X166000000Y-128000000D03*
D19*
%TO.P,U2,2*%
%TO.N,Net-(C2-Pad2)*%
X168540000Y-128000000D03*
%TO.P,U2,3*%
%TO.N,Net-(C10-Pad2)*%
X171080000Y-128000000D03*
%TD*%
D21*
%TO.N,Net-(C1-Pad1)*%
X166000000Y-103000000D02*
X167000000Y-104000000D01*
X166000000Y-97000000D02*
X166000000Y-103000000D01*
X165000000Y-104000000D02*
X161000000Y-108000000D01*
X167000000Y-104000000D02*
X165000000Y-104000000D01*
X154500000Y-101500000D02*
X161000000Y-108000000D01*
X150000000Y-101500000D02*
X154500000Y-101500000D01*
X150000000Y-101500000D02*
X132000000Y-101500000D01*
X132000000Y-101500000D02*
X114000000Y-101500000D01*
X98880000Y-101500000D02*
X94380000Y-106000000D01*
X114000000Y-101500000D02*
X98880000Y-101500000D01*
%TO.N,Net-(C2-Pad2)*%
X94380000Y-124000000D02*
X98380000Y-128000000D01*
X113500000Y-128000000D02*
X114000000Y-128500000D01*
X98380000Y-128000000D02*
X113500000Y-128000000D01*
X114000000Y-128500000D02*
X132000000Y-128500000D01*
X132000000Y-128500000D02*
X150000000Y-128500000D01*
X154500000Y-128500000D02*
X161000000Y-122000000D01*
X150000000Y-128500000D02*
X154500000Y-128500000D01*
X161000000Y-122000000D02*
X165000000Y-122000000D01*
X168540000Y-125540000D02*
X168540000Y-128000000D01*
X165000000Y-122000000D02*
X168540000Y-125540000D01*
%TO.N,Net-(C9-Pad1)*%
X185540000Y-109920000D02*
X183000000Y-109920000D01*
X183000000Y-109920000D02*
X183000000Y-109000000D01*
X178000000Y-104000000D02*
X177000000Y-104000000D01*
X183000000Y-109000000D02*
X178000000Y-104000000D01*
X177000000Y-104000000D02*
X172080000Y-104000000D01*
X172080000Y-98540000D02*
X173620000Y-97000000D01*
X172080000Y-104000000D02*
X172080000Y-98540000D01*
%TO.N,Net-(C10-Pad2)*%
X171080000Y-128000000D02*
X171080000Y-129080000D01*
X173000000Y-131000000D02*
X177000000Y-131000000D01*
X171080000Y-129080000D02*
X173000000Y-131000000D01*
X183000000Y-125000000D02*
X183000000Y-120080000D01*
X177000000Y-131000000D02*
X183000000Y-125000000D01*
X185540000Y-120080000D02*
X183000000Y-120080000D01*
%TO.N,Net-(D1-Pad2)*%
X102000000Y-115000000D02*
X102000000Y-124000000D01*
X102000000Y-115000000D02*
X102000000Y-106000000D01*
%TD*%
M02*
