M48
; DRILL file {KiCad (5.1.9)-1} date 02/16/21 12:42:57
; FORMAT={-:-/ absolute / inch / decimal}
; #@! TF.CreationDate,2021-02-16T12:42:57-08:00
; #@! TF.GenerationSoftware,Kicad,Pcbnew,(5.1.9)-1
; #@! TF.FileFunction,Plated,1,2,PTH
FMAT,2
INCH
T1C0.0315
T2C0.0394
T3C0.0433
T4C0.0472
T5C0.0906
T6C0.0984
T7C0.1181
%
G90
G05
T1
X6.3386Y-4.252
X6.3386Y-4.4488
X6.3386Y-4.6063
X6.3386Y-4.8031
X6.9685Y-4.0945
X6.9685Y-4.2913
X6.9685Y-4.9606
X6.9685Y-5.1575
T2
X7.2047Y-4.3276
X7.2047Y-4.4276
X7.2047Y-4.5276
X7.2047Y-4.6276
X7.2047Y-4.7276
X7.3047Y-4.3276
X7.3047Y-4.4276
X7.3047Y-4.5276
X7.3047Y-4.6276
X7.3047Y-4.7276
T3
X3.7157Y-4.1732
X3.7157Y-4.8819
X4.0157Y-4.1732
X4.0157Y-4.8819
X6.5354Y-3.8189
X6.5354Y-5.0394
X6.5748Y-4.0945
X6.6354Y-5.0394
X6.6748Y-4.0945
X6.7354Y-5.0394
X6.7748Y-4.0945
X6.8354Y-3.8189
T4
X4.4882Y-3.9961
X4.4882Y-4.2913
X4.4882Y-4.7638
X4.4882Y-5.0591
X5.1969Y-3.9961
X5.1969Y-4.2913
X5.1969Y-4.7638
X5.1969Y-5.0591
X5.9055Y-3.9961
X5.9055Y-4.2913
X5.9055Y-4.7638
X5.9055Y-5.0591
T5
X3.7795Y-4.5276
T6
X3.7402Y-4.3504
X3.7402Y-4.7047
T7
X4.0157Y-4.5276
T0
M30
