%TF.GenerationSoftware,KiCad,Pcbnew,(5.1.9)-1*%
%TF.CreationDate,2021-02-16T12:42:14-08:00*%
%TF.ProjectId,Bipolar_PS,4269706f-6c61-4725-9f50-532e6b696361,rev?*%
%TF.SameCoordinates,Original*%
%TF.FileFunction,Soldermask,Bot*%
%TF.FilePolarity,Negative*%
%FSLAX46Y46*%
G04 Gerber Fmt 4.6, Leading zero omitted, Abs format (unit mm)*
G04 Created by KiCad (PCBNEW (5.1.9)-1) date 2021-02-16 12:42:14*
%MOMM*%
%LPD*%
G01*
G04 APERTURE LIST*
%ADD10C,2.400000*%
%ADD11R,2.400000X2.400000*%
%ADD12C,1.600000*%
%ADD13R,2.200000X2.200000*%
%ADD14O,2.200000X2.200000*%
%ADD15R,4.000000X4.000000*%
%ADD16C,3.300000*%
%ADD17C,3.500000*%
%ADD18C,1.700000*%
%ADD19O,1.905000X2.000000*%
%ADD20R,1.905000X2.000000*%
G04 APERTURE END LIST*
D10*
%TO.C,C1*%
X150000000Y-109000000D03*
D11*
X150000000Y-101500000D03*
%TD*%
D10*
%TO.C,C2*%
X114000000Y-128500000D03*
D11*
X114000000Y-121000000D03*
%TD*%
%TO.C,C3*%
X114000000Y-101500000D03*
D10*
X114000000Y-109000000D03*
%TD*%
D11*
%TO.C,C4*%
X132000000Y-121000000D03*
D10*
X132000000Y-128500000D03*
%TD*%
D11*
%TO.C,C5*%
X132000000Y-101500000D03*
D10*
X132000000Y-109000000D03*
%TD*%
%TO.C,C6*%
X150000000Y-128500000D03*
D11*
X150000000Y-121000000D03*
%TD*%
D12*
%TO.C,C7*%
X161000000Y-108000000D03*
X161000000Y-113000000D03*
%TD*%
%TO.C,C8*%
X161000000Y-117000000D03*
X161000000Y-122000000D03*
%TD*%
%TO.C,C9*%
X177000000Y-109000000D03*
X177000000Y-104000000D03*
%TD*%
%TO.C,C10*%
X177000000Y-131000000D03*
X177000000Y-126000000D03*
%TD*%
D13*
%TO.C,D1*%
X94380000Y-106000000D03*
D14*
X102000000Y-106000000D03*
%TD*%
%TO.C,D2*%
X94380000Y-124000000D03*
D13*
X102000000Y-124000000D03*
%TD*%
%TO.C,D3*%
X166000000Y-97000000D03*
D14*
X173620000Y-97000000D03*
%TD*%
D15*
%TO.C,J1*%
X102000000Y-115000000D03*
D16*
X96000000Y-115000000D03*
D17*
X95000000Y-110500000D03*
X95000000Y-119500000D03*
D12*
X93000000Y-115000000D03*
%TD*%
%TO.C,J2*%
G36*
G01*
X182150000Y-110520000D02*
X182150000Y-109320000D01*
G75*
G02*
X182400000Y-109070000I250000J0D01*
G01*
X183600000Y-109070000D01*
G75*
G02*
X183850000Y-109320000I0J-250000D01*
G01*
X183850000Y-110520000D01*
G75*
G02*
X183600000Y-110770000I-250000J0D01*
G01*
X182400000Y-110770000D01*
G75*
G02*
X182150000Y-110520000I0J250000D01*
G01*
G37*
D18*
X183000000Y-112460000D03*
X183000000Y-115000000D03*
X183000000Y-117540000D03*
X183000000Y-120080000D03*
X185540000Y-109920000D03*
X185540000Y-112460000D03*
X185540000Y-115000000D03*
X185540000Y-117540000D03*
X185540000Y-120080000D03*
%TD*%
D19*
%TO.C,U1*%
X172080000Y-104000000D03*
X169540000Y-104000000D03*
D20*
X167000000Y-104000000D03*
%TD*%
%TO.C,U2*%
X166000000Y-128000000D03*
D19*
X168540000Y-128000000D03*
X171080000Y-128000000D03*
%TD*%
M02*
